# xmcd
#
# Track frame offsets:
#	150
#	23677
#	30437
#	41770
#	55620
#	68957
#	86562
#	99975
#	113835
#	129887
#	146342
#	163312
#	178527
#	195480
#	208477
#	223077
#	231465
#	246987
#	264562
#	279575
#	289795
#	304975
#	321444
#
# Disc length: 4467 seconds
#
# Revision: 1
# Processed by: cddbd v1.4PL0 Copyright (c) Steve Scherf et al.
# Submitted via: audiograbber 1.81.02
#
DISCID=5b117117
DTITLE=Frank Sinatra - Complete Reprise - Disc 07
DYEAR=1900
DGENRE=
TTITLE0=Luck Be A Lady
TTITLE1=Fugue For Tinhorns
TTITLE2=The Oldest Established (Permanent Floating Crap Game In New York)
TTITLE3=Here's To The Losers
TTITLE4=Love Isn't Just For The Young
TTITLE5=Have Yourself A Merry Little Cristimas
TTITLE6=Talk To Me Baby
TTITLE7=Stay With Me (Main Theme From The Cardinal)
TTITLE8=Early American
TTITLE9=The House I Live In
TTITLE10=You Are A Lucky Fellow, Mr. Smith
TTITLE11=The Way You Look Tonight
TTITLE12=Three Coins In The Fountain
TTITLE13=Swinging On A Star
TTITLE14=The Continental
TTITLE15=In The Cool, Cool, Cool Of The Evening
TTITLE16=It Might As Well Be Spring
TTITLE17=Secret Love
TTITLE18=Moon River
TTITLE19=Days Of Wine And Roses
TTITLE20=Love Is A Many-Splendored Thing
TTITLE21=Let Us Break Bread Together
TTITLE22=You Never Had It So Good
EXTD=
EXTT0=
EXTT1=
EXTT2=
EXTT3=
EXTT4=
EXTT5=
EXTT6=
EXTT7=
EXTT8=
EXTT9=
EXTT10=
EXTT11=
EXTT12=
EXTT13=
EXTT14=
EXTT15=
EXTT16=
EXTT17=
EXTT18=
EXTT19=
EXTT20=
EXTT21=
EXTT22=
PLAYORDER=
